<svg width="600" height="600" viewBox="0 0 600 600" fill="none" xmlns="http://www.w3.org/2000/svg">
<rect width="600" height="600" fill="white"/>
<path d="M381.949 344.203C381.949 402.042 296.195 451.619 296.195 451.619C296.195 451.619 210.441 402.042 210.441 344.203C210.441 324.48 219.476 305.565 235.558 291.619C251.64 277.673 273.452 269.838 296.195 269.838C318.939 269.838 340.75 277.673 356.832 291.619C372.914 305.565 381.949 324.48 381.949 344.203Z" stroke="#FF5A5F" stroke-width="10" stroke-linecap="round" stroke-linejoin="round"/>
<path d="M296.195 368.992C311.982 368.992 324.78 357.894 324.78 344.203C324.78 330.513 311.982 319.415 296.195 319.415C280.408 319.415 267.61 330.513 267.61 344.203C267.61 357.894 280.408 368.992 296.195 368.992Z" stroke="#FF5A5F" stroke-width="10" stroke-linecap="round" stroke-linejoin="round"/>
<rect x="118.258" y="266.871" width="40.3548" height="242.129" rx="11" fill="#FF5A5F"/>
<rect x="441.097" y="266.871" width="40.3548" height="242.129" rx="11" fill="#FF5A5F"/>
<rect width="46.3603" height="291.222" rx="11" transform="matrix(0.534828 0.844961 -0.884806 0.465961 308.675 92)" fill="#FF5A5F"/>
<rect width="46.3603" height="291.222" rx="11" transform="matrix(-0.534828 0.844961 -0.884806 -0.465961 548.71 227.699)" fill="#FF5A5F"/>
</svg>
